<svg xmlns="http://www.w3.org/2000/svg" width="58.037" height="49.263" viewBox="0 0 58.037 49.263">
  <g id="Groupe_1158" data-name="Groupe 1158" transform="translate(-897 -2052.288)">
    <g id="Groupe_1129" data-name="Groupe 1129" transform="translate(897 2052.288)">
      <g id="Groupe_1128" data-name="Groupe 1128" transform="translate(0 0)">
        <g id="Groupe_1105" data-name="Groupe 1105" transform="translate(10.829 0.356)">
          <path id="Tracé_809" data-name="Tracé 809" d="M310.612,415.139h0a5.328,5.328,0,0,0,5.328-5.329l-.053-37.894a5.328,5.328,0,0,1,5.328-5.329H284.047a5.329,5.329,0,0,0-5.329,5.329v36.152Z" transform="translate(-278.718 -366.587)" fill="#fff"/>
        </g>
        <g id="Groupe_1106" data-name="Groupe 1106" transform="translate(16.158 0)">
          <rect id="Rectangle_474" data-name="Rectangle 474" width="36.594" height="0.711" fill="#2e2e2e"/>
        </g>
        <g id="Groupe_1107" data-name="Groupe 1107" transform="translate(47.743 0.353)">
          <path id="Tracé_810" data-name="Tracé 810" d="M330.7,376.069h9.861v-4.551a4.931,4.931,0,0,0-4.93-4.932,4.367,4.367,0,0,0-4.116,2.61C330.248,372,330.7,376.069,330.7,376.069Z" transform="translate(-330.619 -366.583)" fill="#fff"/>
        </g>
        <g id="Groupe_1108" data-name="Groupe 1108" transform="translate(47.82)">
          <path id="Tracé_811" data-name="Tracé 811" d="M340.944,376.281H330.727v-.711h9.506v-4.2a4.581,4.581,0,0,0-4.575-4.576v-.711a5.293,5.293,0,0,1,5.286,5.287Z" transform="translate(-330.727 -366.087)" fill="#2e2e2e"/>
        </g>
        <g id="Groupe_1109" data-name="Groupe 1109" transform="translate(10.473)">
          <path id="Tracé_812" data-name="Tracé 812" d="M278.929,393.606h-.711V371.772a5.692,5.692,0,0,1,5.685-5.685v.711a4.979,4.979,0,0,0-4.974,4.974Z" transform="translate(-278.218 -366.087)" fill="#2e2e2e"/>
        </g>
        <g id="Groupe_1110" data-name="Groupe 1110" transform="translate(0.356 39.425)">
          <path id="Tracé_813" data-name="Tracé 813" d="M306.534,431a4.932,4.932,0,0,1-4.931-4.931l.039-4.551H263.993v4.551A4.932,4.932,0,0,0,268.925,431Z" transform="translate(-263.993 -421.518)" fill="#fff"/>
        </g>
        <g id="Groupe_1111" data-name="Groupe 1111" transform="translate(5.285 48.552)">
          <rect id="Rectangle_475" data-name="Rectangle 475" width="37.437" height="0.711" fill="#2e2e2e"/>
        </g>
        <g id="Groupe_1112" data-name="Groupe 1112" transform="translate(0 39.069)">
          <path id="Tracé_814" data-name="Tracé 814" d="M306.39,431.212a5.293,5.293,0,0,1-5.287-5.287l.036-4.2H264.2v4.2a4.581,4.581,0,0,0,4.576,4.576v.711a5.293,5.293,0,0,1-5.287-5.287v-4.907h38.363l-.042,4.909a4.58,4.58,0,0,0,4.575,4.573Z" transform="translate(-263.493 -421.018)" fill="#2e2e2e"/>
        </g>
        <g id="Groupe_1113" data-name="Groupe 1113" transform="translate(42.722)">
          <path id="Tracé_815" data-name="Tracé 815" d="M323.56,415.35v-.711a4.978,4.978,0,0,0,4.972-4.973l-.053-37.894a5.691,5.691,0,0,1,5.684-5.685v.711a4.979,4.979,0,0,0-4.972,4.974l.053,37.893A5.691,5.691,0,0,1,323.56,415.35Z" transform="translate(-323.56 -366.087)" fill="#2e2e2e"/>
        </g>
        <g id="Groupe_1114" data-name="Groupe 1114" transform="translate(10.527 21.746)">
          <rect id="Rectangle_476" data-name="Rectangle 476" width="0.711" height="17.571" fill="#2e2e2e"/>
        </g>
        <g id="Groupe_1126" data-name="Groupe 1126" transform="translate(17.688 28.766)">
          <rect id="Rectangle_482" data-name="Rectangle 482" width="23.975" height="0.711" fill="#2e2e2e"/>
        </g>
        <g id="Groupe_1142" data-name="Groupe 1142" transform="translate(17.688 24.386)">
          <rect id="Rectangle_482-2" data-name="Rectangle 482" width="23.975" height="0.711" fill="#2e2e2e"/>
        </g>
        <g id="Groupe_1143" data-name="Groupe 1143" transform="translate(17.688 20.006)">
          <rect id="Rectangle_482-3" data-name="Rectangle 482" width="23.975" height="0.711" fill="#2e2e2e"/>
        </g>
        <g id="Groupe_1144" data-name="Groupe 1144" transform="translate(32.954 15.626)">
          <rect id="Rectangle_482-4" data-name="Rectangle 482" width="8.709" height="0.711" fill="#2e2e2e"/>
        </g>
        <g id="Groupe_1145" data-name="Groupe 1145" transform="translate(33.018 11.246)">
          <rect id="Rectangle_482-5" data-name="Rectangle 482" width="8.645" height="0.711" fill="#2e2e2e"/>
        </g>
        <g id="Groupe_1127" data-name="Groupe 1127" transform="translate(17.688 33.302)">
          <rect id="Rectangle_483" data-name="Rectangle 483" width="23.974" height="0.711" fill="#2e2e2e"/>
        </g>
      </g>
    </g>
    <g id="Groupe_1152" data-name="Groupe 1152" transform="translate(911.783 2058.153)">
      <g id="Groupe_1149" data-name="Groupe 1149" transform="translate(0 0)">
        <rect id="Rectangle_497" data-name="Rectangle 497" width="17.521" height="11.397" fill="#c5d8de"/>
      </g>
      <g id="Groupe_1150" data-name="Groupe 1150" transform="translate(2.246 3.318)">
        <path id="Tracé_825" data-name="Tracé 825" d="M63.539,155.329a3.46,3.46,0,1,1-3.46-3.46A3.46,3.46,0,0,1,63.539,155.329Z" transform="translate(-56.619 -151.87)" fill="#fff"/>
      </g>
      <g id="Groupe_1151" data-name="Groupe 1151" transform="translate(7.16 2.178)">
        <path id="Tracé_826" data-name="Tracé 826" d="M64.91,154.7a2.128,2.128,0,1,1,2.129-2.129A2.131,2.131,0,0,1,64.91,154.7Zm0-3.46a1.331,1.331,0,1,0,1.331,1.331A1.333,1.333,0,0,0,64.91,151.237Z" transform="translate(-62.781 -150.44)" fill="#2e2e2e"/>
      </g>
    </g>
  </g>
</svg>
