<svg xmlns="http://www.w3.org/2000/svg" width="74.771" height="56.523" viewBox="0 0 74.771 56.523">
  <g id="Groupe_1160" data-name="Groupe 1160" transform="translate(-670.922 -2058.227)">
    <path id="Tracé_828" data-name="Tracé 828" d="M1009.5,1958.878v15.307s5.452,5.8,18.488,5.8,17.927-6.445,17.927-6.445v-15.79Z" transform="translate(-320.332 117.112)" fill="#f17046" stroke="#000" stroke-width="1"/>
    <path id="Tracé_827" data-name="Tracé 827" d="M1018.214,1932.75l-34.964,10.957,34.964,17.563,35.609-17.562Z" transform="translate(-311 126)" fill="#f17046" stroke="#000" stroke-width="1"/>
    <path id="Tracé_829" data-name="Tracé 829" d="M995,1965.779v-13.615l26.747-4.914" transform="translate(-315.177 120.845)" fill="none" stroke="#000" stroke-width="1"/>
    <g id="Groupe_1153" data-name="Groupe 1153" transform="translate(677.61 2083.415)">
      <path id="Tracé_522" data-name="Tracé 522" d="M337.768,513.254c0,1.168-2.116,6.826-2.116,6.826s-2.116-5.658-2.116-6.826a2.116,2.116,0,1,1,4.232,0Z" transform="translate(-333.536 -511.137)" fill="#f9cb6b"/>
    </g>
    <path id="Tracé_833" data-name="Tracé 833" d="M1013.333,1987.831c17.4-6.23,48.767-17.831,48.767-17.831s7.519,1.5,3.652,8.164c-11.816,5.8-47.693,21.269-47.693,21.269S1019.778,1991.913,1013.333,1987.831Z" transform="translate(-321.695 112.758)" fill="#fff" stroke="#000" stroke-width="1"/>
    <g id="Ellipse_27" data-name="Ellipse 27" transform="translate(686.719 2102.201) rotate(-22)" fill="#fff" stroke="#000" stroke-width="1">
      <ellipse cx="4.189" cy="6.767" rx="4.189" ry="6.767" stroke="none"/>
      <ellipse cx="4.189" cy="6.767" rx="3.689" ry="6.267" fill="none"/>
    </g>
    <path id="Tracé_834" data-name="Tracé 834" d="M1043.5,1984.911c4.4.859,7.841,3.867,6.123,9.453s0,9.238,0,9.238l2.793-4.3,3.652,1.074s-4.082-5.156-1.719-8.593.859-8.808-4.726-9.453A62.051,62.051,0,0,0,1043.5,1984.911Z" transform="translate(-330.485 107.729)" fill="#63c4ca" stroke="#000" stroke-width="1"/>
    <path id="Tracé_835" data-name="Tracé 835" d="M1009.483,2007.3s-.537-4.082,2.9-3.652,3.437,3.222,2.793,4.941" transform="translate(-320.315 100.162)" fill="none" stroke="#000" stroke-width="1"/>
  </g>
</svg>
